HIERARCHY
ROOT Pelvis
{
	OFFSET 0.000000 0.941512 0.000000
	CHANNELS 6 Xposition Yposition Zposition Zrotation Yrotation Xrotation 
	JOINT Pelvis_L_Hip
	{
		OFFSET 0.000000 0.000000 0.000000
		CHANNELS 3 Zrotation Yrotation Xrotation
		JOINT L_Hip
		{
			OFFSET 0.062321 -0.080322 -0.016990
			CHANNELS 3 Zrotation Yrotation Xrotation
			JOINT L_Knee
			{
				OFFSET 0.093051 -0.381305 -0.029784
				CHANNELS 3 Zrotation Yrotation Xrotation
				JOINT L_Ankle
				{
					OFFSET -0.010371 -0.431000 -0.033614
					CHANNELS 3 Zrotation Yrotation Xrotation
					End Site #name: L_Foot
					{
						OFFSET 0.069299 -0.038670 0.119418
					}
				}
			}
		}
	}
	JOINT Pelvis_R_Hip
	{
		OFFSET 0.000000 0.000000 0.000000
		CHANNELS 3 Zrotation Yrotation Xrotation
		JOINT R_Hip
		{
			OFFSET -0.055334 -0.094904 -0.002373
			CHANNELS 3 Zrotation Yrotation Xrotation
			JOINT R_Knee
			{
				OFFSET -0.064207 -0.384370 -0.019592
				CHANNELS 3 Zrotation Yrotation Xrotation
				JOINT R_Ankle
				{
					OFFSET 0.025418 -0.419734 -0.065953
					CHANNELS 3 Zrotation Yrotation Xrotation
					End Site #name: R_Foot
					{
						OFFSET -0.057233 -0.039888 0.132134
					}
				}
			}
		}
	}
	JOINT Pelvis_Spine1
	{
		OFFSET 0.000000 0.000000 0.000000
		CHANNELS 3 Zrotation Yrotation Xrotation
		JOINT Spine1
		{
			OFFSET -0.005562 0.124093 -0.043360
			CHANNELS 3 Zrotation Yrotation Xrotation
			JOINT Spine2
			{
				OFFSET 0.012244 0.139499 0.029894
				CHANNELS 3 Zrotation Yrotation Xrotation
				JOINT Spine3
				{
					OFFSET -0.002556 0.056561 0.009225
					CHANNELS 3 Zrotation Yrotation Xrotation
					JOINT Spine3_Neck
					{
						OFFSET 0.000000 0.000000 0.000000
						CHANNELS 3 Zrotation Yrotation Xrotation
						JOINT Neck
						{
							OFFSET -0.005205 0.217920 -0.024551
							CHANNELS 3 Zrotation Yrotation Xrotation
							End Site #name: Head
							{
								OFFSET 0.002365 0.091850 0.046637
							}
						}
					}
					JOINT Spine3_L_Collar
					{
						OFFSET 0.000000 0.000000 0.000000
						CHANNELS 3 Zrotation Yrotation Xrotation
						JOINT L_Collar
						{
							OFFSET 0.072225 0.116603 -0.009480
							CHANNELS 3 Zrotation Yrotation Xrotation
							JOINT L_Shoulder
							{
								OFFSET 0.115937 -0.058643 -0.021018
								CHANNELS 3 Zrotation Yrotation Xrotation
								JOINT L_Elbow
								{
									OFFSET 0.021994 -0.254722 -0.024492
									CHANNELS 3 Zrotation Yrotation Xrotation
									End Site #name: L_Wrist
									{
										OFFSET 0.048810 -0.240214 0.103329
									}
								}
							}
						}
					}
					JOINT Spine3_R_Collar
					{
						OFFSET 0.000000 0.000000 0.000000
						CHANNELS 3 Zrotation Yrotation Xrotation
						JOINT R_Collar
						{
							OFFSET -0.073372 0.120704 -0.024611
							CHANNELS 3 Zrotation Yrotation Xrotation
							JOINT R_Shoulder
							{
								OFFSET -0.108089 -0.054969 -0.020504
								CHANNELS 3 Zrotation Yrotation Xrotation
								JOINT R_Elbow
								{
									OFFSET -0.033684 -0.260739 0.009889
									CHANNELS 3 Zrotation Yrotation Xrotation
									End Site #name: R_Wrist
									{
										OFFSET -0.067980 -0.232763 0.118463
									}
								}
							}
						}
					}
				}
			}
		}
	}
}
MOTION
Frames: 11
Frame Time: 0.041667
-0.162702 0.913089 2.004300 9.320325 -4.217357 0.630876 0.000000 0.000000 0.000000 -16.599279 -0.198645 -3.867526 -7.804716 2.984024 36.997059 1.417496 -14.313374 -9.038933 0.000000 0.000000 0.000000 -10.393382 4.013833 -39.631997 7.146610 -0.842294 27.462054 -3.383155 -24.198429 19.341401 0.000000 0.000000 0.000000 17.514451 -8.488678 19.462457 4.272901 -0.703470 -4.884330 8.556875 6.153382 8.560843 0.000000 0.000000 0.000000 -6.107304 3.675889 15.492454 0.000000 0.000000 0.000000 28.246957 -3.168502 3.804771 10.330044 -1.156636 13.780603 14.742072 5.893862 -8.373306 0.000000 0.000000 0.000000 -36.097693 17.605902 -10.446623 -8.329951 -1.184246 16.803438 -17.761799 -4.577162 -39.220020 
-0.170623 0.912259 2.052613 10.283285 -6.409459 0.588038 0.000000 0.000000 0.000000 -8.735463 -2.960291 -11.128896 -15.486043 8.639270 47.049546 3.026556 1.399917 -4.788174 0.000000 0.000000 0.000000 -13.837051 3.183875 -38.625843 11.947771 -2.675526 30.211463 -2.728211 -22.153286 17.156546 0.000000 0.000000 0.000000 15.706223 -8.297316 22.732130 5.296551 -0.824260 -2.134743 9.664566 7.559196 7.543954 0.000000 0.000000 0.000000 -7.185330 4.401697 15.443051 0.000000 0.000000 0.000000 26.724930 -1.096316 5.223898 10.027207 -1.069648 15.198649 15.844162 6.545828 -5.007660 0.000000 0.000000 0.000000 -30.693534 22.210844 -14.764143 -13.260163 -0.469009 5.914905 -23.920889 -11.437646 -12.738831 
-0.176583 0.923112 2.094880 10.747592 -6.483309 2.436228 0.000000 0.000000 0.000000 -2.332654 -5.129029 -20.393573 -15.488713 9.465805 51.147838 2.139300 3.743940 -1.733204 0.000000 0.000000 0.000000 -14.317323 2.864047 -35.922418 12.398195 -2.813941 27.703484 -3.427958 -22.060839 14.594710 0.000000 0.000000 0.000000 15.599127 -8.555095 23.825639 5.631180 -0.857292 -3.501495 10.221188 8.096304 8.177062 0.000000 0.000000 0.000000 -7.169271 4.384265 16.184535 0.000000 0.000000 0.000000 26.692634 0.008676 6.232136 9.199448 -0.875276 15.427266 15.113486 6.287086 -3.028686 0.000000 0.000000 0.000000 -31.412409 22.815067 -15.581953 -11.228303 -0.388726 1.974492 -18.056217 -7.593127 -14.770740 
-0.177267 0.940146 2.133427 12.831818 -6.304141 4.154073 0.000000 0.000000 0.000000 -0.809022 -6.667840 -27.738495 -14.237167 8.064708 48.056646 -0.384140 -2.407197 -0.665171 0.000000 0.000000 0.000000 -14.101963 2.785259 -34.394554 8.512954 -1.284055 26.838235 -3.964591 -22.354497 13.266944 0.000000 0.000000 0.000000 15.436583 -8.426608 23.287484 5.412623 -0.825166 -4.201951 10.003094 7.530474 8.685841 0.000000 0.000000 0.000000 -7.205585 4.477480 16.500367 0.000000 0.000000 0.000000 25.940885 -0.697095 5.366190 8.963833 -0.802797 17.277620 14.690358 6.217494 -0.402062 0.000000 0.000000 0.000000 -33.208583 24.315900 -17.352088 -11.169581 -0.431869 3.612502 -11.238204 -1.383676 -23.768399 
-0.179819 0.959035 2.174462 13.754980 -7.064993 5.034614 0.000000 0.000000 0.000000 -1.249285 -7.820532 -32.607775 -11.946879 6.112685 43.189935 -1.347532 1.512655 3.369054 0.000000 0.000000 0.000000 -11.253742 3.127644 -30.443183 3.968028 0.334460 22.361189 -5.530474 -24.438873 11.337302 0.000000 0.000000 0.000000 15.043574 -8.214751 23.331492 5.403403 -0.821379 -3.921092 10.105768 7.600067 8.058613 0.000000 0.000000 0.000000 -7.944650 5.084428 17.380285 0.000000 0.000000 0.000000 26.335689 -0.862160 5.246775 7.061981 -0.268786 18.529084 15.538074 6.519538 -1.786105 0.000000 0.000000 0.000000 -32.936724 26.230697 -19.245880 -7.599006 -0.453894 3.796451 -14.255107 -3.969174 -22.204970 
-0.186537 0.969898 2.217198 13.781363 -8.844198 4.768142 0.000000 0.000000 0.000000 -1.853295 -8.683152 -36.449362 -11.156046 5.344578 39.052549 -1.579344 6.157257 7.083365 0.000000 0.000000 0.000000 -9.778168 2.764032 -23.438944 1.875868 0.624208 15.144387 -4.731908 -21.474970 8.749049 0.000000 0.000000 0.000000 13.568393 -7.526517 24.095708 5.539624 -0.815029 -4.967709 10.213648 7.708990 8.721031 0.000000 0.000000 0.000000 -9.117052 5.986161 16.813644 0.000000 0.000000 0.000000 26.590944 0.435034 6.227804 6.057273 -0.025224 17.831114 15.971203 6.672377 -2.995739 0.000000 0.000000 0.000000 -30.010156 25.006516 -17.293763 -7.146867 -0.253021 0.772777 -13.154822 -3.388979 -20.795084 
-0.193217 0.973520 2.259329 12.235888 -10.918035 4.916261 0.000000 0.000000 0.000000 -1.243302 -8.996866 -39.765266 -12.053580 5.129905 33.487688 -3.937670 3.730675 9.842936 0.000000 0.000000 0.000000 -8.921786 2.516099 -19.454772 3.078571 0.164973 12.340656 -3.747974 -19.096557 8.191819 0.000000 0.000000 0.000000 13.625656 -7.209976 23.205405 5.052151 -0.748501 -4.781317 10.057384 7.921219 9.286375 0.000000 0.000000 0.000000 -10.347572 6.869724 15.549123 0.000000 0.000000 0.000000 25.977693 2.166346 7.270055 4.986448 0.192555 16.451473 16.157879 6.744399 -3.405171 0.000000 0.000000 0.000000 -29.939308 24.723873 -16.796255 -7.102514 -0.249900 0.778558 -10.939686 -1.758843 -20.723722 
-0.202323 0.970820 2.303645 9.382982 -12.127139 4.957261 0.000000 0.000000 0.000000 -1.796073 -9.163036 -40.609460 -10.161128 3.455104 26.035702 -7.125683 2.652233 14.956152 0.000000 0.000000 0.000000 -4.115145 2.279858 -14.735513 0.876989 0.541013 9.731195 -4.198884 -18.186078 5.646911 0.000000 0.000000 0.000000 16.240944 -7.666760 20.305942 3.401373 -0.543564 -2.081435 9.715565 6.500052 7.393197 0.000000 0.000000 0.000000 -10.615408 7.817503 19.902105 0.000000 0.000000 0.000000 22.709304 0.874182 4.997897 5.290544 0.374372 22.007292 15.395127 6.325264 -4.947942 0.000000 0.000000 0.000000 -32.504894 28.579423 -20.768333 -6.439823 -0.599914 5.653848 -9.818570 -1.307020 -18.689187 
-0.213572 0.958385 2.353156 7.220798 -12.424664 4.083665 0.000000 0.000000 0.000000 -5.039919 -9.665574 -38.877147 -5.260118 1.205724 17.336851 -8.208915 6.980163 20.682451 0.000000 0.000000 0.000000 0.014456 1.385967 -8.414032 -1.042902 0.730707 6.949234 -5.882667 -18.011894 0.749773 0.000000 0.000000 0.000000 19.121660 -8.013156 17.021320 1.135949 -0.168023 0.254968 9.480237 3.727732 4.630631 0.000000 0.000000 0.000000 -11.019343 9.572925 26.266423 0.000000 0.000000 0.000000 17.019296 -2.825612 0.800992 7.737849 -0.164118 30.215130 14.226733 5.743674 -5.630105 0.000000 0.000000 0.000000 -34.385692 34.506366 -27.176489 -7.809571 -1.131837 14.275984 -8.795509 -0.977157 -16.610464 
-0.224634 0.951248 2.398844 4.447785 -13.015797 3.858521 0.000000 0.000000 0.000000 -7.945269 -9.702040 -36.238552 -0.487780 -0.045697 9.730145 -7.244057 10.434501 22.450525 0.000000 0.000000 0.000000 2.257478 0.582243 -4.063480 -0.054937 0.527738 6.922777 -5.623338 -15.845583 -0.714244 0.000000 0.000000 0.000000 16.953399 -7.660345 19.292939 1.431443 -0.307819 -3.299220 9.093628 5.615958 7.605984 0.000000 0.000000 0.000000 -11.681171 8.783604 19.517897 0.000000 0.000000 0.000000 20.237214 -0.206844 3.459780 1.755342 1.412501 21.486393 14.804005 5.950059 -7.188404 0.000000 0.000000 0.000000 -30.912777 27.872955 -19.446985 -8.982560 -0.717967 8.943763 -7.475782 0.406187 -18.787910 
-0.239060 0.944438 2.446548 1.813585 -14.785709 4.235396 0.000000 0.000000 0.000000 -8.210151 -9.180169 -34.654656 1.603430 -0.346225 6.586991 -4.292288 13.833371 20.695192 0.000000 0.000000 0.000000 4.895989 -0.448508 0.606058 -0.818895 0.531660 5.119836 -4.837217 -12.571507 -1.530959 0.000000 0.000000 0.000000 15.485879 -6.955048 19.142816 0.733215 -0.232656 -3.878570 8.262156 6.225536 8.229070 0.000000 0.000000 0.000000 -11.230774 8.015214 16.115808 0.000000 0.000000 0.000000 21.288045 2.228135 5.398915 -2.171039 2.014989 16.377616 14.004299 5.462553 -8.769777 0.000000 0.000000 0.000000 -30.679634 24.193873 -15.460051 -7.217431 -0.586868 5.836390 -7.571398 0.524501 -19.631691 
